<?xml version="1.0" encoding="utf-8"?>
<!-- Generator: Adobe Illustrator 16.0.0, SVG Export Plug-In . SVG Version: 6.00 Build 0)  -->
<!DOCTYPE svg PUBLIC "-//W3C//DTD SVG 1.1//EN" "http://www.w3.org/Graphics/SVG/1.1/DTD/svg11.dtd">
<svg version="1.1" id="Layer_1" xmlns="http://www.w3.org/2000/svg" xmlns:xlink="http://www.w3.org/1999/xlink" x="0px" y="0px"
	 width="1158.414px" height="582.156px" viewBox="0 0 1158.414 582.156" enable-background="new 0 0 1158.414 582.156"
	 xml:space="preserve">
<g>
	<g>
		<path fill="#407FC2" d="M87.16,503.732c-11.42,0-22.846-2.273-33.656-6.75c-15.434-6.396-28.574-16.85-38.005-30.232
			C5.36,452.365,0.001,435.128,0.001,416.908V22.86c0-7.068,5.729-12.793,12.793-12.793s12.792,5.725,12.792,12.793v394.047
			c0,12.916,3.744,25.055,10.826,35.104c6.637,9.422,15.934,16.797,26.885,21.33c10.949,4.537,22.738,5.896,34.092,3.928
			c12.113-2.1,23.344-8.031,32.479-17.17l148.899-148.896c4.996-4.996,13.096-4.996,18.092,0c4.998,4.996,4.998,13.096,0,18.092
			l-148.898,148.9c-12.89,12.883-28.862,21.281-46.204,24.286C96.924,503.32,92.041,503.732,87.16,503.732"/>
		<g opacity="0.3">
			<g>
				<g>
					<g>
						<defs>
							<rect id="SVGID_1_" x="56.352" y="469.988" width="55.385" height="33.744"/>
						</defs>
						<clipPath id="SVGID_2_">
							<use xlink:href="#SVGID_1_"  overflow="visible"/>
						</clipPath>
						<path clip-path="url(#SVGID_2_)" d="M109.791,499.337c-8.496-3.52-15.701-9.234-20.846-16.529
							c-1.063-1.514-2.023-3.07-2.881-4.674c-7.734-0.131-15.473-1.744-22.83-4.793c-2.377-0.98-4.67-2.107-6.879-3.354
							c1.924,9.963,5.869,19.313,11.676,27.557c1.17,1.658,2.408,3.262,3.707,4.813c5.084,0.91,10.223,1.377,15.361,1.377
							c4.879,0,9.76-0.416,14.594-1.252c3.404-0.594,6.76-1.393,10.043-2.391C111.086,499.853,110.436,499.605,109.791,499.337"/>
					</g>
				</g>
			</g>
		</g>
		<path fill="#50C4D0" d="M120.576,543.044c-9.607,0-19.213-1.912-28.299-5.68c-12.98-5.373-24.029-14.164-31.969-25.426
			c-8.535-12.111-13.049-26.613-13.049-41.938V69.872c0-7.063,5.73-12.789,12.795-12.789c7.066,0,12.793,5.727,12.793,12.789
			v400.131c0,10.158,2.816,19.313,8.375,27.195c5.143,7.295,12.35,13.014,20.844,16.533c8.496,3.518,17.635,4.568,26.428,3.047
			c9.51-1.646,17.972-6.123,25.157-13.311l169.93-169.928c4.992-4.996,13.091-5.265,18.089-0.271c4.998,4.996,4.998,13.364,0,18.36
			L171.743,521.563c-10.836,10.831-24.279,17.896-38.882,20.427C128.797,542.691,124.686,543.044,120.576,543.044"/>
		<g opacity="0.3">
			<g>
				<g>
					<g>
						<defs>
							<rect id="SVGID_3_" x="102.537" y="513.912" width="43.415" height="29.131"/>
						</defs>
						<clipPath id="SVGID_4_">
							<use xlink:href="#SVGID_3_"  overflow="visible"/>
						</clipPath>
						<path clip-path="url(#SVGID_4_)" d="M133.779,527.925c-2.4-3.403-4.066-7.148-4.994-11.199
							c-0.096,0.021-0.191,0.039-0.285,0.055c-8.635,1.498-17.6,0.502-25.963-2.867c0.861,10.451,4.377,20.291,10.299,28.713
							c2.576,0.275,5.162,0.42,7.746,0.42c4.109,0,8.219-0.354,12.285-1.057c4.486-0.775,8.861-1.984,13.085-3.592
							C141.051,535.9,136.875,532.322,133.779,527.925"/>
					</g>
				</g>
			</g>
		</g>
		<path fill="#5ABB67" d="M153.683,582.154c-7.75,0-15.497-1.541-22.823-4.576c-10.463-4.334-19.383-11.43-25.787-20.521
			c-6.895-9.781-10.539-21.486-10.539-33.844V117.132c0-7.066,5.727-12.793,12.793-12.793c7.064,0,12.795,5.727,12.795,12.793
			v406.081c0,7.15,1.973,13.58,5.867,19.107c3.611,5.123,8.682,9.143,14.666,11.621c5.979,2.477,12.405,3.219,18.585,2.148
			c6.656-1.153,12.602-4.303,17.66-9.359l168.625-168.621c4.996-4.998,13.098-4.998,18.09,0c4.999,4.994,4.999,13.096,0,18.09
			L194.991,564.822c-8.738,8.736-19.592,14.438-31.387,16.479C160.319,581.871,157.001,582.154,153.683,582.154"/>
		<path fill="#FFFFFF" d="M418.209,313.505l18.639-18.641c41.598-41.596,49.146-84.346,50.457-100.387
			c0.145-1.748-0.461-3.461-1.707-4.709c-1.221-1.221-2.93-1.865-4.652-1.748c-16.152,1.199-59.248,8.4-100.896,50.043
			l-18.661,18.664l-5.764-1.158c-11.098-2.143-22.592,1.367-30.595,9.367l-22.264,22.268c-1.313,1.311-1.799,3.271-1.271,5.049
			c0.561,1.804,2.033,3.144,3.852,3.484l18.646,3.737c5.217,1.06,10.032,3.621,13.817,7.407l30.198,30.195
			c3.785,3.787,6.373,8.584,7.406,13.819l3.738,18.647c0.338,1.818,1.707,3.312,3.482,3.851c1.805,0.55,3.74,0.041,5.048-1.271
			l22.266-22.269c8.004-8.002,11.492-19.474,9.373-30.592L418.209,313.505z M419.014,255.896c-6.828-6.826-6.846-17.926-0.02-24.752
			c6.852-6.852,17.949-6.834,24.777-0.008c6.834,6.834,6.824,17.91-0.023,24.76C436.918,262.722,425.846,262.728,419.014,255.896"/>
	</g>
	<g enable-background="new    ">
		<path fill="#FFFFFF" d="M315.317,1.823v147.851h-40.659V1.823H315.317z"/>
		<path fill="#FFFFFF" d="M419.529,48.745c7.598,4.04,13.415,9.619,17.455,16.736c4.035,7.119,6.058,15.266,6.058,24.437v12.731
			H374.66v9.856c0,4.655,1.47,8.214,4.415,10.678c2.941,2.465,6.741,3.696,11.396,3.696c4.79,0,8.451-1.469,10.986-4.415
			c2.532-2.941,3.799-7.014,3.799-12.218h37.579c0,7.803-2.021,14.855-6.058,21.15c-4.04,6.299-9.928,11.263-17.66,14.888
			c-7.736,3.626-16.874,5.442-27.414,5.442h-3.08c-10.954,0-20.775-2.021-29.468-6.058c-8.695-4.037-15.539-9.925-20.535-17.66
			c-4.999-7.732-7.495-16.941-7.495-27.619v-6.366c0-10.678,2.361-19.884,7.084-27.619c4.723-7.732,11.326-13.62,19.816-17.66
			c8.486-4.036,18.206-6.058,29.159-6.058h5.135C402.86,42.688,411.931,44.709,419.529,48.745z M378.767,71.744
			c-2.739,2.808-4.106,6.196-4.106,10.165v2.875h28.338v-2.875c0-3.969-1.37-7.357-4.107-10.165
			c-2.739-2.804-6.093-4.209-10.062-4.209C384.857,67.535,381.504,68.94,378.767,71.744z"/>
		<path fill="#FFFFFF" d="M563.99,44.741l-34.293,104.933h-47.024L448.79,44.741h43.329l15.4,59.962h1.438l15.401-59.962H563.99z"/>
		<path fill="#FFFFFF" d="M657.73,48.745c7.598,4.04,13.413,9.619,17.453,16.736c4.036,7.119,6.059,15.266,6.059,24.437v12.731
			h-68.381v9.856c0,4.655,1.47,8.214,4.415,10.678c2.941,2.465,6.74,3.696,11.396,3.696c4.789,0,8.451-1.469,10.985-4.415
			c2.531-2.941,3.799-7.014,3.799-12.218h37.579c0,7.803-2.021,14.855-6.06,21.15c-4.039,6.299-9.927,11.263-17.658,14.888
			c-7.735,3.626-16.875,5.442-27.414,5.442h-3.08c-10.954,0-20.775-2.021-29.469-6.058c-8.694-4.037-15.539-9.925-20.534-17.66
			c-4.999-7.732-7.495-16.941-7.495-27.619v-6.366c0-10.678,2.36-19.884,7.084-27.619c4.723-7.732,11.326-13.62,19.815-17.66
			c8.486-4.036,18.205-6.058,29.159-6.058h5.134C641.063,42.688,650.132,44.709,657.73,48.745z M616.969,71.744
			c-2.74,2.808-4.106,6.196-4.106,10.165v2.875H641.2v-2.875c0-3.969-1.37-7.357-4.107-10.165
			c-2.739-2.804-6.092-4.209-10.062-4.209C623.059,67.535,619.705,68.94,616.969,71.744z"/>
		<path fill="#FFFFFF" d="M781.144,50.183c4.996,4.999,7.495,11.878,7.495,20.638v3.491l-0.411,7.803l-0.409,5.134h-33.268V82.32
			c0-2.874-0.855-5.304-2.565-7.289c-1.714-1.983-3.732-2.979-6.06-2.979c-2.464,0-4.553,0.994-6.263,2.979
			c-1.714,1.985-2.567,4.415-2.567,7.289v67.354h-39.631V44.741h30.392l4.518,15.195c0.822-1.643,2.396-3.831,4.723-6.571
			c2.326-2.736,5.476-5.2,9.447-7.393c3.969-2.188,8.486-3.285,13.553-3.285C769.131,42.688,776.145,45.188,781.144,50.183z"/>
		<path fill="#FFFFFF" d="M891.62,51.929c8.42,6.16,12.629,14.169,12.629,24.025v43.328c0,2.603,0.616,4.518,1.849,5.75
			c1.231,1.232,2.736,1.848,4.519,1.848c2.599,0,4.995-0.615,7.187-1.848v21.972c-4.383,3.148-11.294,4.724-20.738,4.724
			c-8.764,0-15.679-1.473-20.74-4.415c-5.066-2.942-8.214-7.014-9.446-12.219c-4.383,5.066-9.209,9.106-14.478,12.116
			c-5.271,3.01-11.739,4.518-19.405,4.518c-10.954,0-19.852-2.121-26.695-6.366c-6.847-4.241-10.267-12.594-10.267-25.053
			c0-9.445,2.669-16.735,8.008-21.869c5.34-5.134,12.97-8.692,22.896-10.678c9.924-1.983,22.553-2.978,37.887-2.978v-5.955
			c0-3.831-1.269-6.844-3.799-9.035c-2.535-2.188-5.719-3.286-9.55-3.286c-3.149,0-6.128,0.924-8.933,2.772
			c-2.808,1.848-4.209,4.143-4.209,6.879v0.821h-39.017c-0.139-0.41-0.205-1.366-0.205-2.875c0-5.884,2.018-11.191,6.058-15.914
			c4.036-4.723,9.786-8.486,17.249-11.294c7.46-2.805,16.12-4.21,25.978-4.21h6.775C871.05,42.688,883.201,45.768,891.62,51.929z
			 M844.903,107.064c-4.244,2.396-6.365,5.718-6.365,9.959c0,6.571,4.106,9.856,12.32,9.856c3.831,0,7.116-1.334,9.856-4.004
			c2.736-2.67,4.106-6.125,4.106-10.37v-9.035C855.787,103.471,849.146,104.671,844.903,107.064z"/>
		<path fill="#FFFFFF" d="M1034.541,44.125c-3.767,4.245-9.414,7.393-16.941,9.446c3.696,2.875,6.536,6.23,8.522,10.062
			c1.982,3.835,2.978,7.804,2.978,11.91c0,6.026-1.849,11.57-5.545,16.634c-3.695,5.066-8.694,9.07-14.989,12.013
			c-6.298,2.945-13.144,4.415-20.534,4.415h-14.17c-3.973,0-6.914,0.584-8.829,1.745c-1.919,1.165-2.875,2.638-2.875,4.415
			c0,2.054,0.821,3.629,2.464,4.723c1.643,1.098,4.723,1.644,9.24,1.644h33.473c10.95,0,19.164,2.91,24.643,8.727
			c5.474,5.82,8.214,13.589,8.214,23.308c0,6.16-1.884,11.942-5.647,17.352c-3.767,5.406-8.798,9.719-15.093,12.937
			c-6.299,3.216-13.075,4.826-20.33,4.826h-54.417c-6.709,0-12.494-2.396-17.352-7.188c-4.861-4.793-7.29-10.61-7.29-17.454v-1.027
			c0-4.793,1.505-9.208,4.518-13.244c3.01-4.037,6.706-7.085,11.089-9.139c-3.013-2.053-5.408-4.652-7.188-7.803
			c-1.78-3.146-2.669-6.501-2.669-10.063c0-5.063,1.813-9.651,5.44-13.758c3.626-4.107,8.111-6.844,13.45-8.214
			c-4.793-3.147-8.624-6.844-11.499-11.089c-2.875-4.242-4.313-8.76-4.313-13.553c0-9.719,4.035-17.66,12.114-23.82
			c8.076-6.161,19.781-9.241,35.115-9.241h5.749c4.929,0,9.446,0.411,13.553,1.232c5.201-3.421,8.897-6.741,11.09-9.96
			c2.188-3.215,3.285-5.92,3.285-8.111h30.393C1040.188,33.79,1038.305,39.883,1034.541,44.125z M956.714,152.138
			c-1.985,1.644-2.978,3.626-2.978,5.955c0,2.326,0.992,4.345,2.978,6.058c1.983,1.711,4.415,2.567,7.29,2.567h29.365
			c2.875,0,5.304-0.821,7.29-2.464c1.981-1.644,2.978-3.629,2.978-5.955c0-2.33-0.995-4.348-2.978-6.059
			c-1.986-1.713-4.415-2.566-7.29-2.566h-29.365C961.129,149.674,958.697,150.495,956.714,152.138z M970.883,66.61
			c-2.396,2.535-3.593,5.58-3.593,9.139c0,3.562,1.196,6.606,3.593,9.138c2.396,2.534,5.372,3.799,8.934,3.799
			c3.559,0,6.535-1.265,8.934-3.799c2.395-2.531,3.593-5.576,3.593-9.138c0-3.559-1.198-6.604-3.593-9.139
			c-2.396-2.531-5.375-3.799-8.934-3.799C976.255,62.812,973.277,64.079,970.883,66.61z"/>
		<path fill="#FFFFFF" d="M1134.339,48.745c7.599,4.04,13.415,9.619,17.455,16.736c4.036,7.119,6.058,15.266,6.058,24.437v12.731
			h-68.381v9.856c0,4.655,1.471,8.214,4.415,10.678c2.942,2.465,6.741,3.696,11.396,3.696c4.791,0,8.451-1.469,10.985-4.415
			c2.531-2.941,3.799-7.014,3.799-12.218h37.579c0,7.803-2.021,14.855-6.058,21.15c-4.04,6.299-9.928,11.263-17.66,14.888
			c-7.736,3.626-16.874,5.442-27.414,5.442h-3.08c-10.953,0-20.774-2.021-29.468-6.058c-8.694-4.037-15.539-9.925-20.534-17.66
			c-4.999-7.732-7.496-16.941-7.496-27.619v-6.366c0-10.678,2.362-19.884,7.085-27.619c4.724-7.732,11.326-13.62,19.816-17.66
			c8.486-4.036,18.205-6.058,29.159-6.058h5.134C1117.671,42.688,1126.741,44.709,1134.339,48.745z M1093.578,71.744
			c-2.74,2.808-4.107,6.196-4.107,10.165v2.875h28.338v-2.875c0-3.969-1.369-7.357-4.105-10.165
			c-2.74-2.804-6.094-4.209-10.063-4.209C1099.668,67.535,1096.314,68.94,1093.578,71.744z"/>
	</g>
	<g enable-background="new    ">
		<path fill="#FFFFFF" d="M620.152,236.98c7.598,4.04,13.415,9.619,17.455,16.736c4.034,7.119,6.057,15.266,6.057,24.437v12.731
			h-68.38v9.856c0,4.654,1.47,8.214,4.415,10.678c2.941,2.465,6.741,3.696,11.396,3.696c4.79,0,8.451-1.47,10.986-4.415
			c2.531-2.941,3.799-7.014,3.799-12.219h37.578c0,7.804-2.021,14.855-6.058,21.15c-4.04,6.299-9.928,11.264-17.659,14.889
			c-7.736,3.625-16.875,5.441-27.414,5.441h-3.08c-10.955,0-20.776-2.021-29.468-6.059c-8.695-4.036-15.539-9.924-20.535-17.659
			c-4.999-7.732-7.495-16.941-7.495-27.619v-6.366c0-10.678,2.361-19.884,7.084-27.619c4.723-7.732,11.326-13.62,19.816-17.66
			c8.486-4.036,18.205-6.058,29.159-6.058h5.134C603.484,230.923,612.555,232.944,620.152,236.98z M579.391,259.979
			c-2.739,2.808-4.106,6.196-4.106,10.165v2.875h28.337v-2.875c0-3.969-1.369-7.357-4.106-10.165
			c-2.739-2.804-6.093-4.209-10.062-4.209C585.48,255.771,582.127,257.176,579.391,259.979z"/>
		<path fill="#FFFFFF" d="M730.32,337.909l-3.695-12.115c-7.531,9.445-16.361,14.169-26.49,14.169
			c-8.49,0-16.119-1.986-22.896-5.955s-12.115-9.96-16.019-17.968c-3.899-8.009-5.852-17.83-5.852-29.468v-2.259
			c0-11.635,1.745-21.459,5.236-29.468c3.489-8.009,8.214-13.995,14.169-17.968c5.955-3.969,12.695-5.955,20.227-5.955
			c12.866,0,21.901,4.313,27.106,12.937v-53.801h40.657v147.851H730.32L730.32,337.909z M700.34,260.801
			c-2.464,2.808-3.695,6.196-3.695,10.165v29.775c0,3.973,1.231,7.36,3.695,10.165c2.465,2.808,5.476,4.209,9.035,4.209
			c3.559,0,6.571-1.401,9.035-4.209c2.465-2.805,3.697-6.192,3.697-10.165v-29.775c0-3.969-1.232-7.357-3.697-10.165
			c-2.464-2.804-5.478-4.209-9.035-4.209C705.814,256.592,702.805,257.997,700.34,260.801z"/>
		<path fill="#FFFFFF" d="M885.563,307.518c0,2.604,0.616,4.519,1.85,5.75c1.23,1.232,2.736,1.849,4.518,1.849
			c2.6,0,4.995-0.615,7.188-1.849v21.973c-4.383,3.148-11.294,4.724-20.74,4.724c-8.763,0-15.472-1.405-20.124-4.21
			c-4.655-2.804-8.008-6.945-10.063-12.424c-2.327,3.563-6.159,7.223-11.498,10.986c-5.34,3.763-11.228,5.646-17.659,5.646h-5.75
			c-5.615,0-10.781-1.37-15.504-4.107c-4.724-2.735-8.455-6.467-11.191-11.19c-2.74-4.724-4.106-9.89-4.106-15.504v-76.184h40.658
			v65.71c0,3.424,1.06,6.334,3.184,8.729c2.121,2.396,4.688,3.594,7.701,3.594c3.01,0,5.575-1.197,7.699-3.594
			c2.12-2.395,3.184-5.305,3.184-8.729v-65.71h40.658v74.541H885.563z"/>
	</g>
</g>
</svg>
