<svg xmlns="http://www.w3.org/2000/svg" xmlns:xlink="http://www.w3.org/1999/xlink" width="76" height="76" viewBox="0 0 76 76"><defs><style>.a{fill:#fff;stroke:#707070;}.b{clip-path:url(#a);}.c{fill:#407fc2;}.d{fill:#39374d;}</style><clipPath id="a"><rect class="a" width="76" height="76" transform="translate(837 2284)"/></clipPath></defs><g class="b" transform="translate(-837 -2284)"><g transform="translate(844.6 2284)"><path class="c" d="M46.867,67.133h-38v2.533a5.067,5.067,0,0,0,5.067,5.067H54.467a5.067,5.067,0,0,0,5.067-5.067V13.933a5.067,5.067,0,0,0-5.067-5.067H51.933v53.2A5.067,5.067,0,0,1,46.867,67.133Zm0,0"/><path class="c" d="M40.533,7.6l3.8,3.8V1.267h-7.6V11.4Zm0,0"/><path class="c" d="M8.867,12.667V22.8H19V12.667Zm0,0"/><path class="c" d="M8.867,30.4V40.533H19V30.4Zm0,0"/><path class="c" d="M8.867,46.867H19V57H8.867Zm0,0"/><path class="d" d="M54.467,7.6H53.2V6.333A6.341,6.341,0,0,0,46.867,0H6.333A6.341,6.341,0,0,0,0,6.333V62.067A6.341,6.341,0,0,0,6.333,68.4H7.6v1.267A6.341,6.341,0,0,0,13.933,76H54.467A6.341,6.341,0,0,0,60.8,69.667V13.933A6.341,6.341,0,0,0,54.467,7.6Zm-11.4-5.067V8.342L41.429,6.7a1.267,1.267,0,0,0-1.791,0L38,8.342V2.533ZM2.533,62.067V6.333a3.8,3.8,0,0,1,3.8-3.8H35.467V11.4a1.267,1.267,0,0,0,2.162.9l2.9-2.9,2.9,2.9a1.267,1.267,0,0,0,2.162-.9V2.533h1.267a3.8,3.8,0,0,1,3.8,3.8V62.067a3.8,3.8,0,0,1-3.8,3.8H6.333A3.8,3.8,0,0,1,2.533,62.067Zm55.733,7.6a3.8,3.8,0,0,1-3.8,3.8H13.933a3.8,3.8,0,0,1-3.8-3.8V68.4H46.867A6.341,6.341,0,0,0,53.2,62.067V10.133h1.267a3.8,3.8,0,0,1,3.8,3.8Zm0,0"/><path class="d" d="M20.179,12.229A1.267,1.267,0,0,0,19,11.4H8.867A1.267,1.267,0,0,0,7.6,12.667V22.8a1.267,1.267,0,0,0,1.267,1.267H19A1.267,1.267,0,0,0,20.267,22.8V15.724L23.7,12.3,21.9,10.5Zm-2.446,9.3h-7.6v-7.6h7.6v.742L15.2,17.209l-1.638-1.638-1.791,1.791L14.3,19.9a1.267,1.267,0,0,0,1.791,0l1.638-1.638Zm0,0"/><path class="d" d="M21.9,28.238l-1.725,1.725A1.267,1.267,0,0,0,19,29.133H8.867A1.267,1.267,0,0,0,7.6,30.4V40.533A1.267,1.267,0,0,0,8.867,41.8H19a1.267,1.267,0,0,0,1.267-1.267V33.458L23.7,30.029ZM17.733,39.267h-7.6v-7.6h7.6v.742L15.2,34.942,13.562,33.3,11.771,35.1,14.3,37.629a1.267,1.267,0,0,0,1.791,0l1.638-1.638Zm0,0"/><path class="d" d="M19,45.6H8.867A1.267,1.267,0,0,0,7.6,46.867V57a1.267,1.267,0,0,0,1.267,1.267H19A1.267,1.267,0,0,0,20.267,57V46.867A1.267,1.267,0,0,0,19,45.6ZM17.733,55.733h-7.6v-7.6h7.6Zm0,0"/><path class="d" d="M25.333,19H38v2.533H25.333Zm0,0"/><path class="d" d="M25.333,13.933h7.6v2.533h-7.6Zm0,0"/><path class="d" d="M25.333,36.733H38v2.533H25.333Zm0,0"/><path class="d" d="M25.333,31.667h7.6V34.2h-7.6Zm0,0"/><path class="d" d="M25.333,53.2H38v2.533H25.333Zm0,0"/><path class="d" d="M25.333,48.133h7.6v2.533h-7.6Zm0,0"/><path class="d" d="M35.467,48.133H38v2.533H35.467Zm0,0"/></g></g></svg>