<?xml version="1.0" encoding="utf-8"?>
<!-- Generator: Adobe Illustrator 22.0.0, SVG Export Plug-In . SVG Version: 6.00 Build 0)  -->
<svg version="1.1" id="Layer_1" xmlns="http://www.w3.org/2000/svg" xmlns:xlink="http://www.w3.org/1999/xlink" x="0px" y="0px"
	 viewBox="0 0 62 26.5" style="enable-background:new 0 0 62 26.5;" xml:space="preserve">
<style type="text/css">
	.st0{fill:#FFFFFF;}
</style>
<path class="st0" d="M53.4,0.2h-9.4l-2.1,6.1c1.3,2,2,4.4,2,7c0,5.6-3.7,10.4-8.7,12.1l-0.3,0.9h9.5l4.2-15.9l4.2,15.7h9.1L53.4,0.2
	z"/>
<path class="st0" d="M37.1,13.4c0,3.3-2.7,6-6,6c-3.3,0-6-2.7-6-6s2.7-6,6-6C34.4,7.4,37.1,10.1,37.1,13.4z"/>
<path class="st0" d="M18.2,13.3c0-5.6,3.6-10.4,8.6-12.1l0.3-0.9h-9.1L13.9,16L9.6,0.3H0.1l9.1,25.8h9.4l1.8-5.5
	C19.1,18.5,18.2,16,18.2,13.3z"/>
</svg>
