<?xml version="1.0" encoding="utf-8"?>
<!-- Generator: Adobe Illustrator 22.0.0, SVG Export Plug-In . SVG Version: 6.00 Build 0)  -->
<svg version="1.1" id="Layer_1" xmlns="http://www.w3.org/2000/svg" xmlns:xlink="http://www.w3.org/1999/xlink" x="0px" y="0px"
	 viewBox="0 0 53.1 27" style="enable-background:new 0 0 53.1 27;" xml:space="preserve">
<style type="text/css">
	.st0{fill:#FFFFFF;}
</style>
<path class="st0" d="M3,3.8C2.5,1.6,2.4,1.2,1.6,1L1.1,0.9V0.3h7.1v0.5L7.5,1C6.3,1.2,6.4,2.5,6.7,4.1L9.9,19l2.3-11.8l-0.8-4.1
	C11,1.6,10.9,1.2,10.1,1L9.6,0.9V0.3h7.3v0.5L16,1c-1.3,0.2-1.1,1.6-0.8,3.1l3,14.9l3-14.1C21.8,2,21.5,1.3,20.3,1l-0.8-0.2V0.3h5.1
	v0.5L24,1.1c-0.8,0.3-1,1-1.6,3.5l-4.8,22.1h-1L12.8,9.4L9.4,26.6H8.1L3,3.8z M31,26.6c-2.3,0-3.1-1.5-3.9-1.5
	c-0.4,0-0.9,0.1-1.4,1.4h-0.5v-8.6h0.6c0.5,4.9,2.4,8,5.1,8c1.8,0,3-1.6,3-4.4c0-5.9-8.9-8.5-8.9-15c0-3.5,1.9-6.2,5.3-6.2
	c2.2,0,2.6,1.4,3.5,1.4c0.5,0,0.9-0.4,1.1-1.2h0.5V9h-0.6c-0.5-4.4-1.7-8-4.5-8c-2,0-2.3,1.9-2.3,3.2c0,5.6,8.9,7.6,8.9,15.5
	C36.8,23.7,34.5,26.6,31,26.6z M48.2,20.4c0,4.1-2.2,6.2-5.5,6.2c-3,0-4.7-2.3-4.7-4.9c0-2,1.6-3,2.8-2.8c0.9,0.1,1.8,0.7,1.6,2.1
	c-0.1,1.9-2.3,1.8-2.3,3c-0.1,0.7,0.9,1.8,2.2,1.8c2.2,0,2.2-2.7,2.2-4.7V2.6c0-1.1-0.4-1.4-1.2-1.6l-1-0.2V0.3h7.9v0.5l-0.9,0.2
	c-0.8,0.2-1.1,0.5-1.1,1.6L48.2,20.4z"/>
</svg>
