<svg xmlns="http://www.w3.org/2000/svg" xmlns:xlink="http://www.w3.org/1999/xlink" width="76" height="76" viewBox="0 0 76 76"><defs><style>.a{fill:#fff;stroke:#707070;}.b{clip-path:url(#a);}.c{fill:#407fc2;}.d{fill:#6dc9f7;}.e{fill:#576574;}.f{fill:#3e4b5a;}.g{fill:#f2bb88;}.h{fill:#e3a76f;}.i{fill:#e4eaf8;}.j{fill:#d8dce5;}.k{fill:#f2d1a5;}.l{fill:#ee5253;}.m{fill:#d83941;}.n{fill:#ff6b6b;}.o{fill:#39374d;}</style><clipPath id="a"><rect class="a" width="76" height="76" transform="translate(1013 1920)"/></clipPath></defs><g class="b" transform="translate(-1013 -1920)"><g transform="translate(1013 1920)"><path class="c" d="M20.272,11.272v45.81a1.294,1.294,0,0,0,1.294,1.294H72.085a1.294,1.294,0,0,0,1.294-1.294V11.272Z"/><path class="d" d="M23.226,57.082V11.272H20.272v45.81a1.294,1.294,0,0,0,1.294,1.294h2.954A1.294,1.294,0,0,1,23.226,57.082Z"/><path class="e" d="M20.055,17.925A10.433,10.433,0,0,0,9.621,28.359v4.129a3.326,3.326,0,0,1,2.658-.868V31.1a.711.711,0,0,1,.762-.709,18.68,18.68,0,0,0,11.243-3.02.711.711,0,0,1,.909.111c2.654,2.853,2.638,2.742,2.638,3.115v1.021a3.156,3.156,0,0,1,2.657.777V28.359A10.433,10.433,0,0,0,20.055,17.925Z"/><path class="f" d="M12.421,28.359a10.433,10.433,0,0,1,9.033-10.337A10.421,10.421,0,0,0,9.621,28.359v4.129a3.326,3.326,0,0,1,2.658-.868V31.1a.706.706,0,0,1,.143-.426Z"/><path class="g" d="M27.693,31.2v5.716c0,.062,0,.123,0,.185a3.01,3.01,0,1,0,0-5.9Z"/><path class="g" d="M12.417,36.918V31.2a3.169,3.169,0,0,0-3.6,2.948,3.032,3.032,0,0,0,3.607,2.95C12.42,37.041,12.417,36.98,12.417,36.918Z"/><path class="h" d="M30.223,31.868a3.172,3.172,0,0,0-2.53-.666v5.716c0,.062,0,.123,0,.185a3.169,3.169,0,0,0,2.535-.666V31.868Z"/><path class="h" d="M12.417,36.438a2.959,2.959,0,0,1-1.072-2.285,2.856,2.856,0,0,1,1.072-2.192V31.2a3.169,3.169,0,0,0-3.6,2.948,3.032,3.032,0,0,0,3.606,2.95c0-.062,0-.123,0-.185Z"/><path class="g" d="M20.166,44.445a8.048,8.048,0,0,1-4.378-1.237V47.3l4.36,5.381,4.36-5.381v-4.21A7.62,7.62,0,0,1,20.166,44.445Z"/><path class="h" d="M18.579,44.3a7.807,7.807,0,0,1-2.792-1.093V47.3l2.792,3.446Z"/><path class="i" d="M36.04,51.493,24.507,47.026l-4.36,5.381-4.36-5.381L4.266,51.493A7.308,7.308,0,0,0,0,58.11V68.961a.992.992,0,0,0,.992.992h38.33a.984.984,0,0,0,.984-.984V58.11A7.308,7.308,0,0,0,36.04,51.493Z"/><path class="j" d="M2.792,68.961V56.853A7.135,7.135,0,0,1,6.061,50.8l-1.795.7A7.308,7.308,0,0,0,0,58.11V68.961a.992.992,0,0,0,.992.992H3.784A.992.992,0,0,1,2.792,68.961Z"/><path class="k" d="M25.193,27.205a.711.711,0,0,0-.909-.111,18.679,18.679,0,0,1-11.243,3.02.711.711,0,0,0-.762.709v6.233a7.673,7.673,0,0,0,7.887,7.665,7.674,7.674,0,0,0,7.665-7.665V30.32C27.831,29.948,27.847,30.058,25.193,27.205Z"/><path class="g" d="M15.071,37.056V30.131a16.255,16.255,0,0,1-2.03-.016.711.711,0,0,0-.762.709v6.233a7.673,7.673,0,0,0,7.887,7.665,7.672,7.672,0,0,0,1.285-.11A7.676,7.676,0,0,1,15.071,37.056Z"/><path class="j" d="M25.411,55.173l3.26-6.534-4.164-1.613-4.36,5.381L24.4,55.427A.688.688,0,0,0,25.411,55.173Z"/><path class="j" d="M14.889,55.173l-3.26-6.534,4.164-1.613,4.36,5.381L15.9,55.427A.687.687,0,0,1,14.889,55.173Z"/><path class="l" d="M20.153,52.412v0l0,0,0,0v0l-3.092,2.2,1.461,2.2h3.266l1.461-2.2Z"/><path class="m" d="M21.7,53.508l-1.544-1.1v0l0,0,0,0v0l-3.092,2.2,1.461,2.2h3.094L20.412,55a.487.487,0,0,1,.124-.667Z"/><path class="n" d="M16.518,69.954h7.263l-2-13.147H18.517Z"/><path class="l" d="M18.517,56.807l-2,13.147h3.094l2-13.147Z"/><path class="e" d="M74.447,6.046H19.2A1.558,1.558,0,0,0,17.651,7.6v2.578A1.558,1.558,0,0,0,19.2,11.73H74.447A1.558,1.558,0,0,0,76,10.177V7.6A1.558,1.558,0,0,0,74.447,6.046Z"/><path class="f" d="M74.447,8.718H19.2a1.557,1.557,0,0,1-1.536-1.336,1.543,1.543,0,0,0-.017.217v2.578A1.558,1.558,0,0,0,19.2,11.73H74.447A1.558,1.558,0,0,0,76,10.177V7.6a1.54,1.54,0,0,0-.017-.217A1.558,1.558,0,0,1,74.447,8.718Z"/><path class="j" d="M8.407,69.954V59.781a1.147,1.147,0,0,0-2.294,0V69.954Z"/><path class="j" d="M34.193,69.954V59.781a1.147,1.147,0,0,0-2.294,0V69.954Z"/><path class="o" d="M32.286,43.817a1.147,1.147,0,0,1,0-1.622L42.707,31.817a1.147,1.147,0,0,1,1.557-.057l6.519,5.6,10.2-10.987a1.147,1.147,0,0,1,1.681,1.561l-10.954,11.8a1.147,1.147,0,0,1-1.588.089l-6.551-5.631L33.908,43.82A1.147,1.147,0,0,1,32.286,43.817Z"/><path class="o" d="M65.686,23.894a.538.538,0,0,0-.538-.538H59.326a.538.538,0,0,0-.38.918L64.768,30.1a.538.538,0,0,0,.919-.38Z"/><path class="o" d="M62,24.274a.538.538,0,0,1,.38-.919H59.326a.538.538,0,0,0-.38.919L64.768,30.1a.538.538,0,0,0,.919-.38v-1.76Z"/></g></g></svg>