<svg xmlns="http://www.w3.org/2000/svg" width="16" height="16" viewBox="0 0 16 16"><defs><style>.a{fill:#2196f3;}.b{fill:#fafafa;}</style></defs><g transform="translate(-0.7 -0.7)"><circle class="a" cx="8" cy="8" r="8" transform="translate(0.7 0.7)"/><path class="b" d="M121.311,118.742a6.047,6.047,0,0,1-2.678-.612.549.549,0,0,0-.734.254l-.394.816a7.713,7.713,0,0,1-2.845-2.845l.817-.394a.549.549,0,0,0,.254-.734,6.027,6.027,0,0,1-.613-2.678.548.548,0,0,0-.548-.548h-2.022a.548.548,0,0,0-.548.548,9.322,9.322,0,0,0,9.311,9.311.548.548,0,0,0,.548-.548v-2.022A.548.548,0,0,0,121.311,118.742Z" transform="translate(-108.229 -108.229)"/></g></svg>