<svg width="19" height="18" viewBox="0 0 19 18" fill="none" xmlns="http://www.w3.org/2000/svg">
<path d="M15.1139 1.29114H13.3671V0.512658C13.3671 0.227848 13.1392 0 12.8544 0C12.5696 0 12.3418 0.227848 12.3418 0.512658V3.18987C12.038 3.36076 11.8291 3.68354 11.8291 4.06329C11.8291 4.63291 12.2848 5.08861 12.8544 5.08861C13.4241 5.08861 13.8797 4.63291 13.8797 4.06329C13.8797 3.68354 13.6709 3.37975 13.3671 3.18987V2.31646H15.1139C16.1772 2.31646 17.0127 3.17089 17.0127 4.21519V5.79114H1.02532V4.21519C1.02532 3.17089 1.87975 2.31646 2.92405 2.31646H3.81646V1.29114H2.92405C1.31013 1.29114 0 2.60127 0 4.21519V15.0759C0 16.6899 1.31013 18 2.92405 18H15.1139C16.7278 18 18.038 16.6899 18.038 15.0759V4.21519C18.038 2.60127 16.7278 1.29114 15.1139 1.29114ZM17.0127 15.0759C17.0127 16.1392 16.1582 16.9747 15.1139 16.9747H2.92405C1.86076 16.9747 1.02532 16.1203 1.02532 15.0759V6.81646H17.0316V15.0759H17.0127Z" fill="#8D8D8D"/>
<path d="M4.19697 11.0316H5.0514C5.65899 11.0316 6.15267 10.538 6.15267 9.93037C6.15267 9.32277 5.65899 8.8291 5.0514 8.8291H4.19697C3.58937 8.8291 3.0957 9.32277 3.0957 9.93037C3.11469 10.538 3.58937 11.0316 4.19697 11.0316Z" fill="#8D8D8D"/>
<path d="M8.59931 11.0316H9.45374C10.0613 11.0316 10.555 10.538 10.555 9.93037C10.555 9.32277 10.0613 8.8291 9.45374 8.8291H8.59931C7.99172 8.8291 7.49805 9.32277 7.49805 9.93037C7.49805 10.538 7.99172 11.0316 8.59931 11.0316Z" fill="#8D8D8D"/>
<path d="M13.0075 11.0316H13.8619C14.4695 11.0316 14.9632 10.538 14.9632 9.93037C14.9632 9.32277 14.4695 8.8291 13.8619 8.8291H13.0075C12.3999 8.8291 11.9062 9.32277 11.9062 9.93037C11.9062 10.538 12.3999 11.0316 13.0075 11.0316Z" fill="#8D8D8D"/>
<path d="M4.19697 14.9242H5.0514C5.65899 14.9242 6.15267 14.4305 6.15267 13.8229C6.15267 13.2154 5.65899 12.7217 5.0514 12.7217H4.19697C3.58937 12.7217 3.0957 13.2154 3.0957 13.8229C3.11469 14.4305 3.58937 14.9242 4.19697 14.9242Z" fill="#8D8D8D"/>
<path d="M8.59931 14.9242H9.45374C10.0613 14.9242 10.555 14.4305 10.555 13.8229C10.555 13.2154 10.0613 12.7217 9.45374 12.7217H8.59931C7.99172 12.7217 7.49805 13.2154 7.49805 13.8229C7.49805 14.4305 7.99172 14.9242 8.59931 14.9242Z" fill="#8D8D8D"/>
<path d="M5.18352 5.06962C5.75314 5.06962 6.20884 4.61392 6.20884 4.0443C6.20884 3.66456 5.99998 3.36076 5.69618 3.17089V2.29747H11.5063V1.29114H5.69618V0.512658C5.69618 0.227848 5.46833 0 5.18352 0C4.89871 0 4.67086 0.227848 4.67086 0.512658V3.18987C4.36706 3.36076 4.1582 3.68354 4.1582 4.06329C4.1582 4.61392 4.6139 5.06962 5.18352 5.06962Z" fill="#8D8D8D"/>
</svg>
