<svg xmlns="http://www.w3.org/2000/svg" width="10" height="14" viewBox="0 0 10 14"><defs><style>.a{fill:#fff;}</style></defs><g transform="translate(-10 -2)"><path class="a" d="M15,2a5.068,5.068,0,0,0-5,5.133C10,11.567,15,16,15,16s5-4.433,5-8.867A5.068,5.068,0,0,0,15,2Zm0,9.1a3.916,3.916,0,0,1-3.864-3.967,3.865,3.865,0,1,1,7.727,0A3.916,3.916,0,0,1,15,11.1Z"/><path class="a" d="M24.332,13.678,23.546,12l-.787,1.678L21,13.947l1.273,1.306-.3,1.844,1.573-.871,1.573.871-.3-1.844,1.273-1.306Z" transform="translate(-8.546 -7.722)"/></g></svg>