<svg xmlns="http://www.w3.org/2000/svg" xmlns:xlink="http://www.w3.org/1999/xlink" width="76" height="76" viewBox="0 0 76 76"><defs><style>.a,.i{fill:#fff;}.a{stroke:#707070;}.b{clip-path:url(#a);}.c{fill:#e6e7e8;}.d{fill:#6dc9f7;}.e{fill:#39374d;}.f{fill:#ffd7e5;}.g{fill:#d6f3fe;}.h{fill:#d4fbff;}.j{fill:#bdecfc;}.k{fill:#3a2c60;}</style><clipPath id="a"><rect class="a" width="76" height="76" transform="translate(277 1919)"/></clipPath></defs><g class="b" transform="translate(-277 -1919)"><g transform="translate(275.328 1917.329)"><path class="c" d="M76.226,71.869l-6.7-6.86a3.4,3.4,0,0,0-2.53-1.017l-1.636-1.675a13.87,13.87,0,0,0-1.283-17.887A13.966,13.966,0,0,0,62.5,43.066,29.683,29.683,0,1,0,42.864,62.242a14.013,14.013,0,0,0,1.334,1.61,13.885,13.885,0,0,0,17.844,1.7l1.638,1.676c0,.043-.014.084-.014.127a3.4,3.4,0,0,0,.973,2.427l6.7,6.859a3.391,3.391,0,0,0,2.4,1.028h.041a3.415,3.415,0,0,0,2.442-5.8Z"/><path class="d" d="M42.38,42.167A13.272,13.272,0,0,1,59.3,40.815,29.033,29.033,0,1,0,40.633,59.045,13.272,13.272,0,0,1,42.38,42.167Z"/><path class="e" d="M58.721,21.871s.126-.266.311-.731a29.1,29.1,0,0,0-21.614-18.3l-.156.022s3.068,2.173.9,3.531S34.139,7.7,33.352,8.428c-1.529,1.407-1.316,3.129-2.065,3.936s-4.519,1.258-5.878,2.287S20.58,21,21.489,21.584s6.547-1.978,8.441-2.411a12.682,12.682,0,0,1,6.029.3c1.064.488,3.3,2.325,4.735,2.325s4.129-2.864,7.977-2.915c1.671-.022,2.059,1.814,4.2,2.609s5.851.378,5.851.378Z"/><path class="e" d="M34.185,25.6a21.886,21.886,0,0,1,2.554-.9c.834-.148,2.175.4,2.295,1.377,0,0,.823,4.132,1.407,4.467a10.226,10.226,0,0,1,2.714,1.591c.963.925,1.263,4.038.9,4.956s-2.621,1.306-3.516,2.06-.034,4.134-.523,4.946-.995.477-1.987,1.325-.583,1.521-1.194,2.408-3.483,2.571-3.657,3.093a24.546,24.546,0,0,1-1.18,2.3,2.068,2.068,0,0,1-3.658-.081c-.554-1.123-1.268-2.855-.872-3.646.612-1.224,2.651-5.1,1.428-6.73a25.373,25.373,0,0,0-2.651-3.059,5.971,5.971,0,0,0-1.723-.953,2.057,2.057,0,0,1-1.089-1.018,16.179,16.179,0,0,1-1.266-3.127c0-.477-.074-3.085,1.607-3.82s2.507-2.518,3.279-2.784a18.4,18.4,0,0,1,2.94-.705c.521-.079.643-1.106,1.55-1.405a20.934,20.934,0,0,1,2.646-.294Z"/><path class="e" d="M60.727,28.344,58.9,28.39a3.759,3.759,0,0,0-2.535.725c-.788.837-1.106,2.649-1.449,3.441s-2.629,2.229-2.017,3.078,3.1,0,3.1,0a6.849,6.849,0,0,1,2.173-.725c.567.074,1.992,1.449,1.992,1.449l.364-.512a29.238,29.238,0,0,0,.193-7.5Z"/><path class="e" d="M16.081,10.848a38.955,38.955,0,0,0,2.657-5.442,29.071,29.071,0,0,0-4.565,2.865c-.642,1.076-1.243,2.336-1.9,3.464-1.747,2.983-3.054,3.994-3.446,5.064-.547,1.495.581,3.145.754,3.967s-1.092,2.361-1.537,3.452a14.139,14.139,0,0,0,0,5.427c.464,1.236,2.344,3.162,2.807,4.089a3.583,3.583,0,0,0,1.682,1.481c.431.274.654,1.62,1.227,1.62s1.053-2.766,1.122-3.852,1.439-3.906,1.659-4.955a8.488,8.488,0,0,0-1.7-5.408A20.815,20.815,0,0,1,11.9,18.3a3.038,3.038,0,0,1,.386-2.9,33.828,33.828,0,0,0,3.792-4.556Z"/><path class="e" d="M31.823,60.408a29.171,29.171,0,0,0,5.757-.573s1.752-2.532.073-3.343a10.485,10.485,0,0,0-6.994.673c-1.973,1.2-4.63.267-5.62.562s-.538,1.749-.538,1.749a29.13,29.13,0,0,0,7.323.932Z"/><path class="f" d="M60.934,61.159a13.28,13.28,0,0,1-1.3,1.1l2.21,2.263a2.745,2.745,0,0,1,2.427-2.371l-2.21-2.262A13.546,13.546,0,0,1,60.934,61.159Z"/><circle class="g" cx="13.273" cy="13.273" r="13.273" transform="translate(32.875 51.662) rotate(-45)"/><path class="h" d="M58.937,44.55a10.178,10.178,0,1,0-.168,14.393A10.178,10.178,0,0,0,58.937,44.55Z"/><path class="i" d="M58.937,44.55a10.13,10.13,0,0,0-6.425-3.021L41.949,54.694a10.026,10.026,0,0,0,4.459,5.677L59.024,44.649C58.994,44.617,58.968,44.582,58.937,44.55Z"/><path class="i" d="M51.411,61.832,61.528,49.224a10.107,10.107,0,0,0-1.359-3.137L48.062,61.175A10.184,10.184,0,0,0,51.411,61.832Z"/><path class="j" d="M73.3,69.823l-6.7-6.86a2.8,2.8,0,1,0-4,3.908l6.7,6.86a2.8,2.8,0,0,0,4-3.908Z"/><path class="i" d="M73.3,69.823l-6.7-6.86a2.8,2.8,0,0,0-3.954-.046,2.76,2.76,0,0,0-.536.753,2.787,2.787,0,0,1,3.25.532l6.7,6.86a2.787,2.787,0,0,1,.49,3.2,2.762,2.762,0,0,0,.7-.487A2.8,2.8,0,0,0,73.3,69.823Z"/><path class="k" d="M7.31,45.774a.62.62,0,0,0-1.068.629A29.827,29.827,0,0,0,10.6,52.1a.62.62,0,1,0,.886-.867,28.6,28.6,0,0,1-4.18-5.457Z"/><path class="k" d="M59.381,44.117a10.728,10.728,0,0,0-7.6-3.251h-.129a10.8,10.8,0,0,0-.123,21.6h.129a10.8,10.8,0,0,0,7.721-18.344ZM58.336,58.5a9.492,9.492,0,0,1-6.676,2.721h-.115A9.558,9.558,0,0,1,51.653,42.1h.115A9.558,9.558,0,0,1,58.336,58.5Z"/><path class="e" d="M73.746,69.39l-6.7-6.86a3.4,3.4,0,0,0-2.53-1.017l-1.636-1.675a13.765,13.765,0,0,0-2.862-19.255A29.673,29.673,0,1,0,2.145,31.349,29.443,29.443,0,0,0,4.86,43.769a.62.62,0,0,0,1.126-.519,28.441,28.441,0,1,1,54.275-11.9,28.287,28.287,0,0,1-1.312,8.5A13.876,13.876,0,0,0,39.676,58.679a28.427,28.427,0,0,1-26.023-5.453.62.62,0,0,0-.793.953,29.616,29.616,0,0,0,27.52,5.578,14.054,14.054,0,0,0,1.338,1.616,13.885,13.885,0,0,0,17.844,1.7L61.2,64.749c0,.043-.014.084-.014.127A3.4,3.4,0,0,0,62.16,67.3l6.7,6.86a3.391,3.391,0,0,0,2.4,1.028h.041a3.414,3.414,0,0,0,2.441-5.8ZM42.6,60.506a12.656,12.656,0,1,1,17.9.209,12.67,12.67,0,0,1-17.9-.209Zm17.954,1.811c.275-.23.549-.461.81-.715s.5-.519.731-.787l1.019,1.043a3.153,3.153,0,0,0-1.541,1.5ZM72.824,73.333a2.179,2.179,0,0,1-3.078-.036l-6.7-6.86a2.176,2.176,0,0,1,3.114-3.04l6.7,6.86a2.175,2.175,0,0,1-.036,3.076Z"/></g></g></svg>