<svg xmlns="http://www.w3.org/2000/svg" width="16" height="16" viewBox="0 0 16 16"><defs><style>.a{fill:#4caf50;}.b{fill:#fafafa;}</style></defs><path class="a" d="M8,0H8A8,8,0,0,0,1.523,12.689l-1,2.972L3.6,14.678A8,8,0,1,0,8,0Z"/><path class="b" d="M116.264,124.43a2.183,2.183,0,0,1-1.519,1.085c-.4.086-.932.154-2.71-.579a9.67,9.67,0,0,1-3.852-3.382,4.378,4.378,0,0,1-.919-2.32,2.449,2.449,0,0,1,.791-1.872,1.128,1.128,0,0,1,.791-.276c.1,0,.182,0,.259.009.227.01.341.023.491.38.187.447.641,1.551.7,1.664a.455.455,0,0,1,.033.416,1.329,1.329,0,0,1-.251.353c-.114.131-.222.231-.337.371-.1.122-.222.253-.091.479a6.833,6.833,0,0,0,1.255,1.551,5.7,5.7,0,0,0,1.814,1.112.492.492,0,0,0,.546-.086,9.311,9.311,0,0,0,.6-.8.433.433,0,0,1,.555-.167c.209.072,1.314.615,1.542.728s.377.167.432.262A1.9,1.9,0,0,1,116.264,124.43Z" transform="translate(-103.752 -113.255)"/></svg>