<svg xmlns="http://www.w3.org/2000/svg" xmlns:xlink="http://www.w3.org/1999/xlink" width="76" height="76" viewBox="0 0 76 76"><defs><style>.a{fill:#d2d8de;stroke:#707070;}.b{clip-path:url(#a);}.c{fill:#f2f2f2;}.d{fill:#39374d;}.e{fill:#407fc2;}.f{fill:#020202;}</style><clipPath id="a"><rect class="a" width="76" height="76" transform="translate(925 2284)"/></clipPath></defs><g class="b" transform="translate(-925 -2284)"><g transform="translate(925 2287.859)"><path class="c" d="M74.516,13.359V63.828A2.968,2.968,0,0,1,71.547,66.8H4.453a2.968,2.968,0,0,1-2.969-2.969V13.359Zm0,0"/><path class="d" d="M74.516,4.453v8.906H1.484V4.453A2.968,2.968,0,0,1,4.453,1.484H71.547A2.968,2.968,0,0,1,74.516,4.453Zm0,0"/><path class="e" d="M46.906,40.078H64.719V57.891H46.906Zm0,0"/><path class="e" d="M11.281,22.266H64.719v8.906H11.281Zm0,0"/><path class="e" d="M11.281,40.078H38V57.891H11.281Zm0,0"/><path class="f" d="M24.641,7.422a1.484,1.484,0,1,1-1.484-1.484A1.484,1.484,0,0,1,24.641,7.422Zm0,0"/><path class="f" d="M18.7,7.422a1.484,1.484,0,1,1-1.484-1.484A1.484,1.484,0,0,1,18.7,7.422Zm0,0"/><path class="f" d="M12.766,7.422a1.484,1.484,0,1,1-1.484-1.484A1.484,1.484,0,0,1,12.766,7.422Zm0,0"/><path class="f" d="M64.719,20.781H11.281A1.484,1.484,0,0,0,9.8,22.266v8.906a1.484,1.484,0,0,0,1.484,1.484H64.719A1.484,1.484,0,0,0,66.2,31.172V22.266A1.484,1.484,0,0,0,64.719,20.781Zm-1.484,8.906H12.766V23.75H63.234Zm0,0"/><path class="f" d="M38,38.594H11.281A1.484,1.484,0,0,0,9.8,40.078V57.891a1.484,1.484,0,0,0,1.484,1.484H38a1.484,1.484,0,0,0,1.484-1.484V40.078A1.484,1.484,0,0,0,38,38.594ZM36.516,56.406H12.766V41.563h23.75Zm0,0"/><path class="f" d="M64.719,38.594H46.906a1.484,1.484,0,0,0-1.484,1.484V57.891a1.484,1.484,0,0,0,1.484,1.484H64.719A1.484,1.484,0,0,0,66.2,57.891V40.078A1.484,1.484,0,0,0,64.719,38.594ZM63.234,56.406H48.391V41.563H63.234Zm0,0"/><path class="f" d="M39.484,1.484A1.484,1.484,0,1,1,38,0,1.484,1.484,0,0,1,39.484,1.484Zm0,0"/><path class="f" d="M71.547,0H44.68a1.484,1.484,0,0,0,0,2.969H71.547a1.486,1.486,0,0,1,1.484,1.484v7.422H2.969V4.453A1.486,1.486,0,0,1,4.453,2.969H31.32A1.484,1.484,0,0,0,31.32,0H4.453A4.458,4.458,0,0,0,0,4.453V63.828a4.458,4.458,0,0,0,4.453,4.453H71.547A4.458,4.458,0,0,0,76,63.828V4.453A4.458,4.458,0,0,0,71.547,0Zm0,65.313H4.453a1.486,1.486,0,0,1-1.484-1.484V14.844H73.031V63.828A1.486,1.486,0,0,1,71.547,65.313Zm0,0"/></g></g></svg>