<svg xmlns="http://www.w3.org/2000/svg" width="75.997" height="75.998" viewBox="0 0 75.997 75.998"><defs><style>.a,.b{fill:#39374d;}.b{opacity:0.593;}.c{fill:#d6f3fe;}.d{fill:#bdecfc;}</style></defs><path class="a" d="M38,76A38,38,0,1,1,76,38,37.993,37.993,0,0,1,38,76Zm0,0"/><path class="b" d="M256,0V76a38,38,0,0,0,0-76Zm0,0" transform="translate(-218.001)"/><path class="c" d="M87.886,316c-11.057,0-21.6,4.833-29.3,15.284a38,38,0,0,0,58.877-.331C113.722,327.235,105.3,316,87.886,316Zm0,0" transform="translate(-49.886 -269.095)"/><path class="d" d="M285.574,330.953A37.9,37.9,0,0,1,256,345.092V316C273.418,316,281.836,327.236,285.574,330.953Zm0,0" transform="translate(-218.001 -269.095)"/><path class="c" d="M179.359,92.171A13.374,13.374,0,0,1,166,78.812V74.359a13.359,13.359,0,0,1,26.718,0v4.453A13.374,13.374,0,0,1,179.359,92.171Zm0,0" transform="translate(-141.36 -51.946)"/><path class="d" d="M256,61V92.171a13.374,13.374,0,0,0,13.359-13.359V74.359A13.374,13.374,0,0,0,256,61Zm0,0" transform="translate(-218.001 -51.946)"/></svg>